<svg width="74" height="23" xmlns="http://www.w3.org/2000/svg">

 <g>
  <title>Layer 1</title>
  <g stroke="null" id="svg_1">
   <path stroke="null" id="svg_2" fill="none" d="m0,0l72,0l0,20.64771l-72,0l0,-20.64771z"/>
   <path stroke="null" id="svg_3" fill="#f2f2f2" d="m11.38294,3.31075c0.71199,-0.88999 1.18368,-2.07367 1.06799,-3.26625c-1.04129,0.0534 -2.29617,0.68529 -3.03486,1.55748c-0.65859,0.74759 -1.24598,1.99357 -1.07689,3.14166c1.15698,0.1157 2.32287,-0.56959 3.04376,-1.43288zm2.56316,7.59159c-0.0267,-2.58986 2.11817,-3.80915 2.21607,-3.88925c-1.20148,-1.78888 -3.08826,-1.99357 -3.72905,-2.02917c-1.68208,-0.0979 -3.09716,0.95229 -3.90705,0.95229s-2.02917,-0.89889 -3.35525,-0.88999c-1.73548,0.0267 -3.39085,1.01459 -4.27194,2.57206c-1.81557,3.11496 -0.41829,7.74289 1.34388,10.26156c0.86329,1.25488 1.88677,2.65216 3.23066,2.58986c1.28158,-0.0534 1.78888,-0.83659 3.32855,-0.83659s2.00247,0.83659 3.35525,0.80989c1.40618,-0.0267 2.29617,-1.25488 3.12386,-2.50977c0.97899,-1.43288 1.37948,-2.79456 1.40618,-2.88356c-0.0267,-0.0356 -2.71446,-1.07689 -2.74116,-4.14734zm29.37849,-4.58344c-3.38195,0 -5.50012,1.79778 -5.66032,4.27194l2.65216,0c0.2492,-1.22818 1.27268,-1.98467 2.89246,-1.98467c1.71768,0 2.75896,0.91669 2.75896,2.43857l0,1.06799l-3.75575,0.2136c-3.25735,0.178 -5.10853,1.66428 -5.10853,4.05834c0,2.47417 1.88677,4.13844 4.55674,4.13844c1.79778,0 3.55105,-0.97009 4.34314,-2.50087l0.089,0l0,2.26947l2.66996,0l0,-9.44277c0.0089,-2.75896 -2.10927,-4.53004 -5.43782,-4.53004zm2.64326,8.84648c0,1.78888 -1.53968,3.14166 -3.50655,3.14166c-1.51298,0 -2.50977,-0.77429 -2.50977,-1.99357c0,-1.17478 0.95229,-1.92237 2.65216,-2.03807l3.37305,-0.2047l0,1.09468l-0.0089,0zm23.18418,-13.74141l0,7.4314l-0.0356,0c-0.77429,-1.51298 -2.35847,-2.50977 -4.32534,-2.50977c-3.44425,0 -5.74932,2.75896 -5.74932,7.0843s2.30507,7.1021 5.77602,7.1021c2.00247,0 3.56885,-1.01459 4.37874,-2.58096l0.0445,0.0356l0,2.31397l2.75896,0l0,-18.87664l-2.84796,0zm-3.59555,16.71397c-2.24277,0 -3.61335,-1.81557 -3.61335,-4.70803c0,-2.88356 1.40618,-4.70803 3.61335,-4.70803c2.17157,0 3.60445,1.86897 3.60445,4.70803c0.0089,2.87466 -1.43288,4.70803 -3.60445,4.70803zm-11.30284,-9.22917l-0.0534,0l0,-2.41187l-2.66996,0l0,13.79481l2.84796,0l0,-8.21459c0,-1.94907 1.05019,-3.15056 2.86576,-3.15056c0.54289,0 1.09468,0.0712 1.31718,0.1513l0,-2.62546c-0.2047,-0.0445 -0.60519,-0.1068 -1.01459,-0.1068c-1.61088,0 -2.83906,0.95229 -3.29295,2.56316zm-26.47713,9.14907c-3.45315,0 -5.65142,-2.76786 -5.65142,-7.1822c0,-4.35204 2.22497,-7.1644 5.63362,-7.1644c2.56316,0 4.55674,1.62868 5.09073,4.03164l2.89246,0c-0.48949,-3.91595 -3.71125,-6.59481 -7.98319,-6.59481c-5.25983,0 -8.61508,3.75575 -8.61508,9.71867c0,6.00742 3.32855,9.72757 8.61508,9.72757c4.32534,0 7.289,-2.30507 8.00099,-6.17651l-2.91026,0c-0.58739,2.29617 -2.43857,3.64005 -5.07293,3.64005z"/>
  </g>
 </g>
</svg>